<svg width="105" height="54" viewBox="0 0 105 54" fill="none" xmlns="http://www.w3.org/2000/svg">
<g clipPath="url(#clip0_264_29766)">
<path d="M39.6963 26.7373C39.6963 35.8729 31.6019 43.3051 21.6526 43.3051C11.7032 43.3051 3.60878 35.8729 3.60878 26.7373C3.60878 9.4369 15.5285 3.18136e-07 21.6526 3.18136e-07C23.9686 -0.000572426 26.2186 0.772209 28.0455 2.19576C29.8724 3.61931 31.1717 5.61212 31.7372 7.85807C33.3702 14.6479 40.3748 19.3195 39.6963 26.7373ZM28.8701 28.8701C29.0397 14.509 14.2654 14.5108 14.4351 28.8701C14.509 38.4333 28.7979 38.4333 28.8701 28.8701Z" fill="#50C878"/>
<path d="M25.2613 28.87C25.3948 33.6354 17.9103 33.6354 18.0438 28.87C18.0961 19.3068 25.2108 19.3068 25.2613 28.87Z" fill="#98DBAE"/>
</g>
<path d="M37.0521 43.3269C36.7551 42.8461 36.4016 42.33 35.9915 41.7785C35.5956 41.2129 35.1572 40.6543 34.6765 40.1029C34.2098 39.5372 33.722 38.9999 33.2129 38.4908C32.7039 37.9677 32.1948 37.5081 31.6858 37.1122V43.3269H28.3769V28.6279H31.6858V34.1851C32.5483 33.2801 33.4109 32.3398 34.2735 31.3641C35.1502 30.3742 35.9632 29.4622 36.7127 28.6279H40.6367C39.6327 29.8157 38.6216 30.9611 37.6035 32.064C36.5996 33.167 35.539 34.277 34.4219 35.3941C35.5956 36.3698 36.7268 37.5293 37.8156 38.8726C38.9186 40.216 39.9721 41.7007 40.976 43.3269H37.0521Z" fill="#50C878"/>
<path d="M41.2847 37.8333C41.2847 36.8435 41.4332 35.9809 41.7302 35.2456C42.0413 34.4962 42.4443 33.874 42.9392 33.3791C43.4341 32.8842 43.9997 32.5094 44.636 32.2549C45.2865 32.0004 45.9511 31.8731 46.6298 31.8731C48.2136 31.8731 49.465 32.361 50.3841 33.3367C51.3032 34.2982 51.7628 35.7193 51.7628 37.6C51.7628 37.7838 51.7557 37.9889 51.7416 38.2151C51.7275 38.4272 51.7133 38.6181 51.6992 38.7878H44.53C44.6007 39.4383 44.9047 39.9544 45.442 40.3362C45.9794 40.718 46.7005 40.9089 47.6055 40.9089C48.1853 40.9089 48.7509 40.8594 49.3024 40.7604C49.868 40.6473 50.3276 40.5129 50.6811 40.3574L51.1053 42.9239C50.9356 43.0087 50.7093 43.0936 50.4265 43.1784C50.1437 43.2632 49.8256 43.3339 49.4721 43.3905C49.1327 43.4612 48.765 43.5178 48.3691 43.5602C47.9732 43.6026 47.5772 43.6238 47.1813 43.6238C46.1773 43.6238 45.3006 43.4754 44.5512 43.1784C43.8159 42.8815 43.2008 42.4784 42.7059 41.9694C42.2251 41.4462 41.8645 40.8311 41.6241 40.1241C41.3979 39.417 41.2847 38.6535 41.2847 37.8333ZM48.7085 36.6243C48.6943 36.3556 48.6448 36.094 48.56 35.8395C48.4893 35.585 48.3691 35.3587 48.1994 35.1608C48.0439 34.9628 47.8388 34.8002 47.5843 34.6729C47.3439 34.5457 47.0399 34.482 46.6723 34.482C46.3187 34.482 46.0147 34.5457 45.7602 34.6729C45.5057 34.7861 45.2936 34.9416 45.1239 35.1396C44.9542 35.3375 44.8199 35.5708 44.7209 35.8395C44.636 36.094 44.5724 36.3556 44.53 36.6243H48.7085Z" fill="#50C878"/>
<path d="M54.0956 29.3915L57.256 28.8824V32.1701H61.0527V34.8002H57.256V38.7242C57.256 39.3888 57.3692 39.919 57.5954 40.315C57.8358 40.7109 58.3095 40.9089 59.0165 40.9089C59.3559 40.9089 59.7023 40.8806 60.0558 40.824C60.4235 40.7533 60.7558 40.6614 61.0527 40.5483L61.4982 43.0087C61.1164 43.1643 60.6922 43.2986 60.2255 43.4117C59.7589 43.5248 59.1862 43.5814 58.5075 43.5814C57.6449 43.5814 56.9308 43.4683 56.3652 43.242C55.7996 43.0016 55.3471 42.6764 55.0077 42.2663C54.6683 41.8421 54.4279 41.3331 54.2865 40.7392C54.1593 40.1453 54.0956 39.4877 54.0956 38.7666V29.3915Z" fill="#50C878"/>
<path d="M73.6477 37.7273C73.6477 38.604 73.5205 39.41 73.2659 40.1453C73.0114 40.8664 72.6438 41.4886 72.163 42.0118C71.6822 42.5209 71.1025 42.9168 70.4237 43.1996C69.7591 43.4824 69.0097 43.6238 68.1754 43.6238C67.3552 43.6238 66.6058 43.4824 65.9271 43.1996C65.2625 42.9168 64.6898 42.5209 64.209 42.0118C63.7282 41.4886 63.3535 40.8664 63.0848 40.1453C62.8162 39.41 62.6818 38.604 62.6818 37.7273C62.6818 36.8506 62.8162 36.0516 63.0848 35.3305C63.3676 34.6093 63.7494 33.9942 64.2302 33.4851C64.7251 32.9761 65.3049 32.5801 65.9695 32.2973C66.6482 32.0145 67.3835 31.8731 68.1754 31.8731C68.9814 31.8731 69.7167 32.0145 70.3813 32.2973C71.06 32.5801 71.6398 32.9761 72.1206 33.4851C72.6013 33.9942 72.9761 34.6093 73.2447 35.3305C73.5134 36.0516 73.6477 36.8506 73.6477 37.7273ZM70.4237 37.7273C70.4237 36.7516 70.2257 35.988 69.8298 35.4365C69.448 34.8709 68.8965 34.5881 68.1754 34.5881C67.4542 34.5881 66.8957 34.8709 66.4997 35.4365C66.1038 35.988 65.9058 36.7516 65.9058 37.7273C65.9058 38.703 66.1038 39.4807 66.4997 40.0604C66.8957 40.6261 67.4542 40.9089 68.1754 40.9089C68.8965 40.9089 69.448 40.6261 69.8298 40.0604C70.2257 39.4807 70.4237 38.703 70.4237 37.7273Z" fill="#50C878"/>
<path d="M76.308 43.3269V28.6279H86.1498V31.4065H79.6169V34.482H85.4286V37.2606H79.6169V43.3269H76.308Z" fill="#50C878"/>
<path d="M91.4358 43.3269H88.2755V32.1701H91.4358V43.3269ZM91.7328 28.9461C91.7328 29.5258 91.5419 29.9854 91.1601 30.3247C90.7925 30.65 90.3541 30.8126 89.845 30.8126C89.336 30.8126 88.8906 30.65 88.5088 30.3247C88.1411 29.9854 87.9573 29.5258 87.9573 28.9461C87.9573 28.3663 88.1411 27.9138 88.5088 27.5886C88.8906 27.2492 89.336 27.0795 89.845 27.0795C90.3541 27.0795 90.7925 27.2492 91.1601 27.5886C91.5419 27.9138 91.7328 28.3663 91.7328 28.9461Z" fill="#50C878"/>
<path d="M94.3006 29.3915L97.461 28.8824V32.1701H101.258V34.8002H97.461V38.7242C97.461 39.3888 97.5741 39.919 97.8004 40.315C98.0407 40.7109 98.5145 40.9089 99.2215 40.9089C99.5609 40.9089 99.9073 40.8806 100.261 40.824C100.628 40.7533 100.961 40.6614 101.258 40.5483L101.703 43.0087C101.321 43.1643 100.897 43.2986 100.43 43.4117C99.9639 43.5248 99.3912 43.5814 98.7124 43.5814C97.8499 43.5814 97.1358 43.4683 96.5701 43.242C96.0045 43.0016 95.552 42.6764 95.2127 42.2663C94.8733 41.8421 94.6329 41.3331 94.4915 40.7392C94.3642 40.1453 94.3006 39.4877 94.3006 38.7666V29.3915Z" fill="#50C878"/>
<path fill-rule="evenodd" clip-rule="evenodd" d="M35.5734 45.9782L34.7963 44.7201C34.661 44.501 34.5082 44.2677 34.3371 44.0197V45.9782H25.7256V25.9766H34.3371V27.3056C34.4734 27.1534 34.6078 27.0035 34.7403 26.8561L35.5304 25.9766H46.3492L42.7678 30.2137C43.0513 30.0557 43.3459 29.9154 43.6514 29.7932L43.6606 29.7895L43.6699 29.7859C44.6191 29.4145 45.6108 29.2218 46.6298 29.2218C48.4062 29.2218 50.0702 29.6859 51.4443 30.7338V27.133L59.9074 25.7698V29.5187H63.7041V30.5085C64.0912 30.258 64.5009 30.0409 64.9313 29.8577L64.9405 29.8538L64.9497 29.8499C65.9758 29.4224 67.0607 29.2218 68.1754 29.2218C69.2934 29.2218 70.384 29.4187 71.4103 29.8538C72.2415 30.2013 72.9968 30.6756 73.6567 31.2793V25.9766H86.3782C86.4918 25.8479 86.6154 25.7238 86.7497 25.6048C87.6145 24.8371 88.6852 24.4282 89.845 24.4282C90.9909 24.4282 92.0602 24.8284 92.9206 25.6058C93.3208 25.9552 93.6298 26.3522 93.8586 26.7772L100.112 25.7698V29.5187H103.909V37.4515H103.392L104.695 44.6527L102.703 45.4641C102.182 45.6767 101.63 45.8492 101.055 45.9884C100.319 46.1668 99.5225 46.2327 98.7124 46.2327C97.6421 46.2327 96.5655 46.0957 95.5855 45.7037L95.5592 45.6932L95.5331 45.6821C95.0202 45.4641 94.5323 45.1869 94.0872 44.8425V45.9782H85.6241V39.912H82.2682V45.9782H73.6567V44.2561C73.007 44.8415 72.2662 45.303 71.4528 45.6431C70.4155 46.0829 69.3083 46.2752 68.1754 46.2752C67.0456 46.2752 65.9445 46.0791 64.9073 45.647L64.8981 45.6432L64.8889 45.6392C64.4595 45.4565 64.051 45.2396 63.6658 44.9885L62.4985 45.4641C61.9767 45.6767 61.4246 45.8492 60.8502 45.9884C60.1143 46.1668 59.3175 46.2327 58.5075 46.2327C57.4372 46.2327 56.3605 46.0957 55.3805 45.7037L55.3542 45.6932L55.3281 45.6821C54.7134 45.4209 54.1348 45.0746 53.6225 44.6295L52.291 45.2953C51.932 45.4748 51.5463 45.6105 51.1884 45.7179C50.7915 45.837 50.3767 45.9285 49.9519 45.9986C49.5344 46.0833 49.0999 46.1484 48.6516 46.1964C48.1623 46.2488 47.6721 46.2752 47.1813 46.2752C46.3022 46.2752 45.4415 46.1847 44.6188 45.9782H35.5734ZM39.2049 40.6755C39.2484 40.7356 39.2918 40.796 39.3352 40.8565C39.344 40.8688 39.3528 40.8811 39.3615 40.8933C39.9132 41.6659 40.4514 42.4771 40.976 43.3269H37.0521C36.7551 42.8461 36.4016 42.33 35.9915 41.7785C35.5956 41.2129 35.1572 40.6543 34.6765 40.1029C34.5646 39.9672 34.4514 39.8332 34.3371 39.7008C33.9746 39.2811 33.5999 38.8778 33.2129 38.4908C32.8674 38.1357 32.5218 37.8098 32.1763 37.5133C32.0128 37.373 31.8493 37.2393 31.6858 37.1122V43.3269H28.3769V28.6279H31.6858V34.1851C31.7644 34.1026 31.843 34.0198 31.9216 33.9367C32.7056 33.1084 33.4895 32.2508 34.2735 31.3641C34.2947 31.3401 34.3159 31.3161 34.3371 31.2922C35.1895 30.3301 35.9814 29.442 36.7127 28.6279H40.6367C39.8687 29.5365 39.0966 30.4203 38.3203 31.2792C38.0818 31.5432 37.8428 31.8048 37.6035 32.064C37.172 32.5381 36.73 33.0135 36.2776 33.4901C35.6775 34.1225 35.0589 34.7571 34.4219 35.3941C35.0801 35.9413 35.725 36.5462 36.3565 37.209C36.8511 37.7281 37.3374 38.2826 37.8156 38.8726C38.1883 39.3265 38.5553 39.7965 38.9166 40.2827C39.0131 40.4125 39.1092 40.5434 39.2049 40.6755ZM41.3948 39.1792C41.4502 39.5047 41.5267 39.8196 41.6241 40.1241C41.8645 40.8311 42.2251 41.4462 42.7059 41.9694C42.7648 42.03 42.8254 42.0891 42.8877 42.1466C43.1491 42.3882 43.4404 42.6033 43.7618 42.792C44.0074 42.9363 44.2705 43.0651 44.5512 43.1784C45.3006 43.4753 46.1773 43.6238 47.1813 43.6238C47.5772 43.6238 47.9732 43.6026 48.3691 43.5602C48.5438 43.5415 48.713 43.52 48.8767 43.4958C49.084 43.4651 49.2824 43.43 49.4721 43.3905C49.5726 43.3744 49.6703 43.3572 49.7652 43.3388C49.7822 43.3355 49.7992 43.3322 49.8161 43.3288C50.0352 43.2849 50.2386 43.2348 50.4265 43.1784C50.7093 43.0936 50.9356 43.0087 51.1053 42.9239L50.6811 40.3574C50.4734 40.4488 50.2291 40.5328 49.9481 40.6096C49.8611 40.6333 49.7707 40.6564 49.6766 40.6788C49.5575 40.7071 49.4328 40.7343 49.3024 40.7604C49.2211 40.775 49.1396 40.7885 49.0577 40.8009C49.0173 40.807 48.9768 40.8129 48.9362 40.8185C48.8072 40.8364 48.6775 40.8516 48.5469 40.8642C48.3933 40.879 48.2387 40.8901 48.083 40.8975C47.9249 40.9051 47.7658 40.9089 47.6055 40.9089C46.7005 40.9089 45.9794 40.718 45.442 40.3362C45.0468 40.0553 44.7778 39.7018 44.635 39.2756C44.5837 39.1224 44.5487 38.9598 44.53 38.7878H51.6992C51.6998 38.7808 51.7004 38.7737 51.7009 38.7666C51.7145 38.6022 51.728 38.4184 51.7416 38.2151C51.7557 37.9889 51.7628 37.7838 51.7628 37.6C51.7628 37.3918 51.7572 37.1892 51.7459 36.9922C51.7353 36.807 51.7197 36.6268 51.6992 36.4515C51.6866 36.3446 51.6723 36.2396 51.656 36.1365C51.6043 35.8077 51.5337 35.4978 51.4443 35.2067C51.2149 34.4594 50.8615 33.836 50.3841 33.3367C49.7812 32.6967 49.0354 32.2666 48.1466 32.0464C47.6925 31.9339 47.201 31.8762 46.6723 31.8732C46.6581 31.8732 46.644 31.8731 46.6298 31.8731C46.0249 31.8731 45.4312 31.9742 44.8487 32.1764C44.7777 32.2011 44.7068 32.2272 44.636 32.2549C43.9997 32.5094 43.4341 32.8842 42.9392 33.3791C42.4443 33.874 42.0413 34.4962 41.7302 35.2456C41.4332 35.9809 41.2847 36.8435 41.2847 37.8333C41.2847 38.3003 41.3214 38.7489 41.3948 39.1792ZM44.6324 36.1365C44.5902 36.2964 44.5561 36.459 44.53 36.6243H48.7085C48.6998 36.459 48.6777 36.2964 48.6422 36.1365C48.6201 36.0364 48.5926 35.9374 48.56 35.8395C48.4893 35.585 48.3691 35.3587 48.1994 35.1608C48.0439 34.9628 47.8388 34.8002 47.5843 34.6729C47.531 34.6447 47.4747 34.6197 47.4152 34.5977C47.2061 34.5206 46.9584 34.482 46.6723 34.482C46.658 34.482 46.6439 34.4821 46.6298 34.4823C46.3116 34.487 46.0344 34.5444 45.7983 34.6545C45.7855 34.6605 45.7728 34.6666 45.7602 34.6729C45.5057 34.786 45.2936 34.9416 45.1239 35.1396C44.9542 35.3375 44.8199 35.5708 44.7209 35.8395C44.6882 35.9374 44.6587 36.0364 44.6324 36.1365ZM54.0956 38.7666C54.0956 38.841 54.0963 38.9146 54.0977 38.9877C54.1071 39.4957 54.1493 39.971 54.2242 40.4135C54.243 40.5241 54.2637 40.6327 54.2865 40.7392C54.4279 41.3331 54.6683 41.8421 55.0077 42.2663C55.3471 42.6764 55.7996 43.0016 56.3652 43.242C56.9308 43.4683 57.6449 43.5814 58.5075 43.5814C58.7608 43.5814 58.9994 43.5735 59.2231 43.5578C59.5989 43.5313 59.9331 43.4826 60.2255 43.4117C60.305 43.3924 60.3833 43.3726 60.4603 43.3521C60.4863 43.3451 60.5122 43.3381 60.538 43.3311C60.8833 43.2363 61.2034 43.1288 61.4982 43.0087L61.0527 40.5483C60.8983 40.6071 60.7343 40.6602 60.5607 40.7076C60.5348 40.7147 60.5087 40.7216 60.4823 40.7284C60.3459 40.7637 60.2037 40.7956 60.0558 40.824C59.9066 40.8479 59.7586 40.8667 59.6119 40.8805C59.439 40.8968 59.2678 40.9061 59.0983 40.9083C59.0862 40.9085 59.074 40.9086 59.0619 40.9087C59.0468 40.9088 59.0316 40.9089 59.0165 40.9089C58.3095 40.9089 57.8358 40.7109 57.5954 40.315C57.3692 39.919 57.256 39.3888 57.256 38.7242V34.8002H61.0527V32.1701H57.256V28.8824L54.0956 29.3915V38.7666ZM60.0339 37.4515H59.9074V38.1372C59.9543 38.1237 59.9973 38.1101 60.0367 38.0967C60.0325 37.9739 60.0305 37.8508 60.0305 37.7273C60.0305 37.6351 60.0316 37.5432 60.0339 37.4515ZM62.6863 37.4515C62.6833 37.5426 62.6818 37.6345 62.6818 37.7273C62.6818 38.604 62.8162 39.41 63.0848 40.1453C63.0889 40.1563 63.093 40.1672 63.0972 40.1782C63.3159 40.7558 63.6032 41.2694 63.9591 41.7189C64.0389 41.8198 64.1222 41.9174 64.209 42.0118C64.6898 42.5209 65.2625 42.9168 65.9271 43.1996C66.6058 43.4824 67.3552 43.6238 68.1754 43.6238C69.0097 43.6238 69.7591 43.4824 70.4237 43.1996C71.1025 42.9168 71.6822 42.5209 72.163 42.0118C72.6438 41.4886 73.0114 40.8664 73.2659 40.1453C73.5205 39.41 73.6477 38.604 73.6477 37.7273C73.6477 36.8506 73.5134 36.0516 73.2447 35.3305C72.9761 34.6093 72.6013 33.9942 72.1206 33.4851C71.6398 32.9761 71.06 32.5801 70.3813 32.2973C69.7167 32.0145 68.9814 31.8731 68.1754 31.8731C67.3835 31.8731 66.6482 32.0145 65.9695 32.2973C65.3049 32.5801 64.7251 32.9761 64.2302 33.4851C64.0392 33.6874 63.8638 33.9063 63.7041 34.142C63.5641 34.3486 63.4361 34.568 63.3201 34.8002C63.2353 34.9701 63.1568 35.1468 63.0848 35.3305C62.8837 35.8703 62.7579 36.4537 62.7073 37.0808C62.6975 37.2027 62.6905 37.3263 62.6863 37.4515ZM69.8298 35.4365C69.448 34.8709 68.8965 34.5881 68.1754 34.5881C67.4542 34.5881 66.8957 34.8709 66.4997 35.4365C66.1038 35.988 65.9058 36.7516 65.9058 37.7273C65.9058 38.7029 66.1038 39.4807 66.4997 40.0604C66.8957 40.626 67.4542 40.9089 68.1754 40.9089C68.8965 40.9089 69.448 40.626 69.8298 40.0604C70.2257 39.4807 70.4237 38.7029 70.4237 37.7273C70.4237 36.7516 70.2257 35.988 69.8298 35.4365ZM38.7931 35.9376C38.8965 35.3582 39.053 34.7944 39.2717 34.2528L39.2765 34.2409L39.2814 34.2291C39.2998 34.1849 39.3184 34.1409 39.3374 34.0971C38.9677 34.5002 38.591 34.904 38.2074 35.3083C38.4043 35.5136 38.5996 35.7234 38.7931 35.9376ZM79.6169 37.2606H85.4286V34.482H79.6169V31.4065H86.1498V28.6279H76.308V43.3269H79.6169V37.2606ZM88.027 29.5187C88.0798 29.7185 88.1626 29.8986 88.2755 30.0591C88.3426 30.1546 88.4204 30.2431 88.5088 30.3247C88.6024 30.4045 88.6998 30.4745 88.8011 30.5346C89.1128 30.7199 89.4608 30.8126 89.845 30.8126C90.3541 30.8126 90.7925 30.65 91.1601 30.3247C91.267 30.2297 91.3589 30.1253 91.4358 30.0115C91.5288 29.874 91.6 29.7227 91.6493 29.5577C91.6531 29.5448 91.6568 29.5318 91.6604 29.5187C91.6718 29.4772 91.6819 29.4347 91.6906 29.3915C91.7187 29.2518 91.7328 29.1034 91.7328 28.946C91.7328 28.7246 91.705 28.5218 91.6493 28.3375C91.5592 28.0392 91.3961 27.7896 91.1601 27.5886C90.7925 27.2492 90.3541 27.0795 89.845 27.0795C89.4608 27.0795 89.1128 27.1762 88.8011 27.3695C88.6998 27.4323 88.6024 27.5054 88.5088 27.5886C88.2113 27.8517 88.0342 28.1981 87.9774 28.6279C87.964 28.7293 87.9573 28.8354 87.9573 28.946C87.9573 29.1521 87.9805 29.343 88.027 29.5187ZM88.2755 32.1701V43.3269H91.4358V32.1701H88.2755ZM94.3006 38.7666C94.3006 39.4877 94.3642 40.1453 94.4915 40.7392C94.6329 41.3331 94.8733 41.8421 95.2127 42.2663C95.552 42.6764 96.0045 43.0016 96.5701 43.242C97.1358 43.4683 97.8499 43.5814 98.7124 43.5814C98.9658 43.5814 99.2043 43.5735 99.4281 43.5578C99.8039 43.5313 100.138 43.4826 100.43 43.4117C100.51 43.3924 100.588 43.3726 100.665 43.3521C100.691 43.3451 100.717 43.3381 100.743 43.3311C101.088 43.2363 101.408 43.1288 101.703 43.0087L101.258 40.5483C101.103 40.6071 100.939 40.6602 100.766 40.7076C100.605 40.7513 100.437 40.7901 100.261 40.824C100.112 40.8479 99.9636 40.8667 99.8169 40.8805C99.6439 40.8968 99.4728 40.9061 99.3033 40.9083C99.2912 40.9085 99.279 40.9086 99.2668 40.9087C99.2517 40.9088 99.2366 40.9089 99.2215 40.9089C98.5145 40.9089 98.0407 40.7109 97.8004 40.315C97.5741 39.919 97.461 39.3888 97.461 38.7242V34.8002H101.258V32.1701H97.461V28.8824L94.3006 29.3915V38.7666ZM100.112 37.4515V38.1372C100.19 38.1149 100.257 38.0924 100.314 38.0706L101.939 37.4515H100.112Z" fill="white"/>
<path d="M77.6714 53C77.5981 52.76 77.5148 52.5133 77.4214 52.26C77.3348 52.0067 77.2481 51.7533 77.1614 51.5H74.4614C74.3748 51.7533 74.2848 52.0067 74.1914 52.26C74.1048 52.5133 74.0248 52.76 73.9514 53H72.3314C72.5914 52.2533 72.8381 51.5633 73.0714 50.93C73.3048 50.2967 73.5314 49.7 73.7514 49.14C73.9781 48.58 74.1981 48.05 74.4114 47.55C74.6314 47.0433 74.8581 46.55 75.0914 46.07H76.5814C76.8081 46.55 77.0314 47.0433 77.2514 47.55C77.4714 48.05 77.6914 48.58 77.9114 49.14C78.1381 49.7 78.3681 50.2967 78.6014 50.93C78.8348 51.5633 79.0814 52.2533 79.3414 53H77.6714ZM75.8014 47.64C75.7681 47.74 75.7181 47.8767 75.6514 48.05C75.5848 48.2233 75.5081 48.4233 75.4214 48.65C75.3348 48.8767 75.2381 49.1267 75.1314 49.4C75.0314 49.6733 74.9281 49.96 74.8214 50.26H76.7914C76.6848 49.96 76.5814 49.6733 76.4814 49.4C76.3814 49.1267 76.2848 48.8767 76.1914 48.65C76.1048 48.4233 76.0281 48.2233 75.9614 48.05C75.8948 47.8767 75.8414 47.74 75.8014 47.64Z" fill="#99A69D"/>
<path d="M81.3011 50.33C81.3011 50.79 81.4044 51.16 81.6111 51.44C81.8177 51.72 82.1244 51.86 82.5311 51.86C82.6644 51.86 82.7877 51.8567 82.9011 51.85C83.0144 51.8367 83.1077 51.8233 83.1811 51.81V49.1C83.0877 49.04 82.9644 48.99 82.8111 48.95C82.6644 48.91 82.5144 48.89 82.3611 48.89C81.6544 48.89 81.3011 49.37 81.3011 50.33ZM84.6711 52.83C84.5377 52.87 84.3844 52.91 84.2111 52.95C84.0377 52.9833 83.8544 53.0133 83.6611 53.04C83.4744 53.0667 83.2811 53.0867 83.0811 53.1C82.8877 53.12 82.7011 53.13 82.5211 53.13C82.0877 53.13 81.7011 53.0667 81.3611 52.94C81.0211 52.8133 80.7344 52.6333 80.5011 52.4C80.2677 52.16 80.0877 51.8733 79.9611 51.54C79.8411 51.2 79.7811 50.82 79.7811 50.4C79.7811 49.9733 79.8344 49.59 79.9411 49.25C80.0477 48.9033 80.2011 48.61 80.4011 48.37C80.6011 48.13 80.8444 47.9467 81.1311 47.82C81.4244 47.6933 81.7577 47.63 82.1311 47.63C82.3377 47.63 82.5211 47.65 82.6811 47.69C82.8477 47.73 83.0144 47.7867 83.1811 47.86V45.48L84.6711 45.24V52.83Z" fill="#99A69D"/>
<path d="M88.9562 50.21C88.9562 49.73 88.8929 49.39 88.7662 49.19C88.6462 48.99 88.4362 48.89 88.1362 48.89C88.0429 48.89 87.9462 48.8967 87.8462 48.91C87.7462 48.9167 87.6495 48.9267 87.5562 48.94V53H86.0662V47.92C86.1929 47.8867 86.3395 47.8533 86.5062 47.82C86.6795 47.78 86.8595 47.7467 87.0462 47.72C87.2395 47.6867 87.4362 47.6633 87.6362 47.65C87.8362 47.63 88.0329 47.62 88.2262 47.62C88.6062 47.62 88.9129 47.67 89.1462 47.77C89.3862 47.8633 89.5829 47.9767 89.7362 48.11C89.9495 47.9567 90.1929 47.8367 90.4662 47.75C90.7462 47.6633 91.0029 47.62 91.2362 47.62C91.6562 47.62 91.9995 47.68 92.2662 47.8C92.5395 47.9133 92.7562 48.0767 92.9162 48.29C93.0762 48.5033 93.1862 48.7567 93.2462 49.05C93.3062 49.3433 93.3362 49.67 93.3362 50.03V53H91.8462V50.21C91.8462 49.73 91.7829 49.39 91.6562 49.19C91.5362 48.99 91.3262 48.89 91.0262 48.89C90.9462 48.89 90.8329 48.91 90.6862 48.95C90.5462 48.99 90.4295 49.04 90.3362 49.1C90.3829 49.2533 90.4129 49.4167 90.4262 49.59C90.4395 49.7567 90.4462 49.9367 90.4462 50.13V53H88.9562V50.21Z" fill="#99A69D"/>
<path d="M96.1793 53H94.6893V47.74H96.1793V53ZM96.3193 46.22C96.3193 46.4933 96.2293 46.71 96.0493 46.87C95.8759 47.0233 95.6693 47.1 95.4293 47.1C95.1893 47.1 94.9793 47.0233 94.7993 46.87C94.6259 46.71 94.5393 46.4933 94.5393 46.22C94.5393 45.9467 94.6259 45.7333 94.7993 45.58C94.9793 45.42 95.1893 45.34 95.4293 45.34C95.6693 45.34 95.8759 45.42 96.0493 45.58C96.2293 45.7333 96.3193 45.9467 96.3193 46.22Z" fill="#99A69D"/>
<path d="M97.5799 47.92C97.8332 47.8467 98.1599 47.78 98.5599 47.72C98.9599 47.6533 99.3799 47.62 99.8199 47.62C100.267 47.62 100.637 47.68 100.93 47.8C101.23 47.9133 101.467 48.0767 101.64 48.29C101.813 48.5033 101.937 48.7567 102.01 49.05C102.083 49.3433 102.12 49.67 102.12 50.03V53H100.63V50.21C100.63 49.73 100.567 49.39 100.44 49.19C100.313 48.99 100.077 48.89 99.7299 48.89C99.6232 48.89 99.5099 48.8967 99.3899 48.91C99.2699 48.9167 99.1632 48.9267 99.0699 48.94V53H97.5799V47.92Z" fill="#99A69D"/>
<defs>
<clipPath id="clip0_264_29766">
<rect width="43.3051" height="43.3051" fill="white"/>
</clipPath>
</defs>
</svg>
