<svg width="470" height="309" viewBox="0 0 470 309" fill="none" xmlns="http://www.w3.org/2000/svg">
<g clip-path="url(#clip0_157_3)">
<rect width="470" height="309" fill="#025196"/>
<path d="M79.25 211C67.5833 211 57.25 208.333 48.25 203C39.4167 197.5 32.4167 189.917 27.25 180.25C22.0833 170.417 19.5 159 19.5 146C19.5 133 22 121.667 27 112C32.1667 102.167 39.25 94.5833 48.25 89.25C57.25 83.75 67.75 81 79.75 81C91.75 81 102 83.75 110.5 89.25C119 94.5833 125.5 101.667 130 110.5C134.5 119.333 136.75 128.833 136.75 139C136.75 140.833 136.667 142.667 136.5 144.5C136.5 146.333 136.5 148.417 136.5 150.75H40.25C40.75 159.917 42.8333 167.583 46.5 173.75C50.3333 179.75 55.0833 184.25 60.75 187.25C66.5833 190.25 72.75 191.75 79.25 191.75C88.4167 191.75 95.5833 189.833 100.75 186C105.917 182.167 109.833 176.833 112.5 170H133.25C130.417 181.5 124.5 191.25 115.5 199.25C106.5 207.083 94.4167 211 79.25 211ZM79.25 99.75C69.5833 99.75 61.0833 102.667 53.75 108.5C46.5833 114.333 42.1667 122.5 40.5 133H116C115.333 122.667 111.583 114.583 104.75 108.75C98.0833 102.75 89.5833 99.75 79.25 99.75Z" fill="white"/>
<path d="M31.13 275V254H37.91C40.35 254 42.36 254.43 43.94 255.29C45.54 256.15 46.72 257.37 47.48 258.95C48.26 260.51 48.65 262.37 48.65 264.53C48.65 266.65 48.26 268.5 47.48 270.08C46.72 271.64 45.54 272.85 43.94 273.71C42.36 274.57 40.35 275 37.91 275H31.13ZM34.73 271.94H37.73C39.55 271.94 40.98 271.65 42.02 271.07C43.08 270.47 43.83 269.62 44.27 268.52C44.73 267.4 44.96 266.07 44.96 264.53C44.96 262.97 44.73 261.64 44.27 260.54C43.83 259.42 43.08 258.56 42.02 257.96C40.98 257.34 39.55 257.03 37.73 257.03H34.73V271.94ZM59.0952 275.36C57.6552 275.36 56.3552 275.03 55.1952 274.37C54.0552 273.69 53.1552 272.76 52.4952 271.58C51.8552 270.38 51.5352 269.01 51.5352 267.47C51.5352 265.89 51.8652 264.51 52.5252 263.33C53.1852 262.13 54.0852 261.2 55.2252 260.54C56.3852 259.86 57.6852 259.52 59.1252 259.52C60.5652 259.52 61.8552 259.86 62.9952 260.54C64.1552 261.2 65.0552 262.12 65.6952 263.3C66.3552 264.48 66.6852 265.86 66.6852 267.44C66.6852 269.02 66.3552 270.4 65.6952 271.58C65.0352 272.76 64.1252 273.69 62.9652 274.37C61.8252 275.03 60.5352 275.36 59.0952 275.36ZM59.0952 272.27C59.8152 272.27 60.4652 272.09 61.0452 271.73C61.6452 271.37 62.1252 270.83 62.4852 270.11C62.8452 269.39 63.0252 268.5 63.0252 267.44C63.0252 266.38 62.8452 265.5 62.4852 264.8C62.1452 264.08 61.6752 263.54 61.0752 263.18C60.4952 262.82 59.8452 262.64 59.1252 262.64C58.4252 262.64 57.7752 262.82 57.1752 263.18C56.5752 263.54 56.0952 264.08 55.7352 264.8C55.3752 265.5 55.1952 266.38 55.1952 267.44C55.1952 268.5 55.3752 269.39 55.7352 270.11C56.0952 270.83 56.5652 271.37 57.1452 271.73C57.7452 272.09 58.3952 272.27 59.0952 272.27ZM77.3792 275.36C75.8992 275.36 74.5692 275.03 73.3892 274.37C72.2292 273.69 71.3192 272.76 70.6592 271.58C70.0192 270.38 69.6992 269.02 69.6992 267.5C69.6992 265.92 70.0192 264.54 70.6592 263.36C71.3192 262.16 72.2292 261.22 73.3892 260.54C74.5692 259.86 75.9092 259.52 77.4092 259.52C79.2892 259.52 80.8692 260.02 82.1492 261.02C83.4292 262 84.2492 263.35 84.6092 265.07H80.8292C80.6292 264.31 80.2092 263.71 79.5692 263.27C78.9492 262.83 78.2092 262.61 77.3492 262.61C76.6092 262.61 75.9292 262.8 75.3092 263.18C74.7092 263.56 74.2292 264.11 73.8692 264.83C73.5292 265.55 73.3592 266.42 73.3592 267.44C73.3592 268.22 73.4592 268.91 73.6592 269.51C73.8592 270.11 74.1392 270.62 74.4992 271.04C74.8792 271.44 75.3092 271.75 75.7892 271.97C76.2692 272.19 76.7892 272.3 77.3492 272.3C77.9292 272.3 78.4492 272.21 78.9092 272.03C79.3892 271.83 79.7892 271.54 80.1092 271.16C80.4492 270.78 80.6892 270.33 80.8292 269.81H84.6092C84.2492 271.49 83.4292 272.84 82.1492 273.86C80.8692 274.86 79.2792 275.36 77.3792 275.36ZM94.4159 275C93.3959 275 92.5059 274.84 91.7459 274.52C91.0059 274.2 90.4259 273.67 90.0059 272.93C89.5859 272.19 89.3759 271.19 89.3759 269.93V262.91H86.7959V259.88H89.3759L89.7959 255.89H92.9759V259.88H97.0859V262.91H92.9759V269.93C92.9759 270.69 93.1359 271.22 93.4559 271.52C93.7959 271.8 94.3559 271.94 95.1359 271.94H96.9959V275H94.4159ZM107.142 275.36C105.702 275.36 104.402 275.03 103.242 274.37C102.102 273.69 101.202 272.76 100.542 271.58C99.902 270.38 99.582 269.01 99.582 267.47C99.582 265.89 99.912 264.51 100.572 263.33C101.232 262.13 102.132 261.2 103.272 260.54C104.432 259.86 105.732 259.52 107.172 259.52C108.612 259.52 109.902 259.86 111.042 260.54C112.202 261.2 113.102 262.12 113.742 263.3C114.402 264.48 114.732 265.86 114.732 267.44C114.732 269.02 114.402 270.4 113.742 271.58C113.082 272.76 112.172 273.69 111.012 274.37C109.872 275.03 108.582 275.36 107.142 275.36ZM107.142 272.27C107.862 272.27 108.512 272.09 109.092 271.73C109.692 271.37 110.172 270.83 110.532 270.11C110.892 269.39 111.072 268.5 111.072 267.44C111.072 266.38 110.892 265.5 110.532 264.8C110.192 264.08 109.722 263.54 109.122 263.18C108.542 262.82 107.892 262.64 107.172 262.64C106.472 262.64 105.822 262.82 105.222 263.18C104.622 263.54 104.142 264.08 103.782 264.8C103.422 265.5 103.242 266.38 103.242 267.44C103.242 268.5 103.422 269.39 103.782 270.11C104.142 270.83 104.612 271.37 105.192 271.73C105.792 272.09 106.442 272.27 107.142 272.27ZM118.256 275V259.88H121.466L121.796 262.7C122.156 262.04 122.606 261.48 123.146 261.02C123.686 260.54 124.316 260.17 125.036 259.91C125.776 259.65 126.586 259.52 127.466 259.52V263.33H126.206C125.606 263.33 125.036 263.41 124.496 263.57C123.956 263.71 123.486 263.95 123.086 264.29C122.706 264.61 122.406 265.06 122.186 265.64C121.966 266.2 121.856 266.91 121.856 267.77V275H118.256ZM136.21 275.36C134.87 275.36 133.7 275.15 132.7 274.73C131.72 274.29 130.94 273.69 130.36 272.93C129.8 272.15 129.47 271.26 129.37 270.26H132.97C133.07 270.68 133.25 271.07 133.51 271.43C133.77 271.77 134.12 272.04 134.56 272.24C135.02 272.44 135.56 272.54 136.18 272.54C136.78 272.54 137.27 272.46 137.65 272.3C138.03 272.12 138.31 271.89 138.49 271.61C138.67 271.33 138.76 271.03 138.76 270.71C138.76 270.23 138.63 269.86 138.37 269.6C138.11 269.34 137.73 269.14 137.23 269C136.75 268.84 136.17 268.69 135.49 268.55C134.77 268.41 134.07 268.24 133.39 268.04C132.73 267.82 132.13 267.55 131.59 267.23C131.07 266.91 130.65 266.5 130.33 266C130.03 265.5 129.88 264.89 129.88 264.17C129.88 263.29 130.11 262.5 130.57 261.8C131.05 261.1 131.73 260.55 132.61 260.15C133.51 259.73 134.58 259.52 135.82 259.52C137.58 259.52 138.98 259.93 140.02 260.75C141.08 261.55 141.7 262.68 141.88 264.14H138.46C138.36 263.58 138.08 263.15 137.62 262.85C137.16 262.53 136.55 262.37 135.79 262.37C135.01 262.37 134.41 262.52 133.99 262.82C133.59 263.1 133.39 263.48 133.39 263.96C133.39 264.26 133.51 264.54 133.75 264.8C134.01 265.04 134.38 265.25 134.86 265.43C135.34 265.59 135.93 265.75 136.63 265.91C137.75 266.13 138.74 266.39 139.6 266.69C140.46 266.99 141.14 267.43 141.64 268.01C142.14 268.59 142.39 269.41 142.39 270.47C142.41 271.43 142.16 272.28 141.64 273.02C141.14 273.76 140.43 274.34 139.51 274.76C138.59 275.16 137.49 275.36 136.21 275.36ZM158.247 275.36C157.007 275.36 155.977 275.15 155.157 274.73C154.337 274.31 153.727 273.75 153.327 273.05C152.927 272.35 152.727 271.59 152.727 270.77C152.727 269.81 152.967 268.98 153.447 268.28C153.947 267.58 154.677 267.04 155.637 266.66C156.597 266.26 157.777 266.06 159.177 266.06H162.987C162.987 265.26 162.877 264.6 162.657 264.08C162.437 263.54 162.097 263.14 161.637 262.88C161.177 262.62 160.587 262.49 159.867 262.49C159.047 262.49 158.347 262.68 157.767 263.06C157.187 263.42 156.827 263.98 156.687 264.74H153.147C153.267 263.66 153.627 262.74 154.227 261.98C154.827 261.2 155.617 260.6 156.597 260.18C157.597 259.74 158.687 259.52 159.867 259.52C161.287 259.52 162.497 259.77 163.497 260.27C164.497 260.75 165.257 261.45 165.777 262.37C166.317 263.27 166.587 264.36 166.587 265.64V275H163.527L163.167 272.57C162.967 272.97 162.707 273.34 162.387 273.68C162.087 274.02 161.737 274.32 161.337 274.58C160.937 274.82 160.477 275.01 159.957 275.15C159.457 275.29 158.887 275.36 158.247 275.36ZM159.057 272.51C159.637 272.51 160.147 272.41 160.587 272.21C161.047 271.99 161.437 271.69 161.757 271.31C162.097 270.91 162.357 270.47 162.537 269.99C162.717 269.51 162.837 269 162.897 268.46V268.4H159.567C158.867 268.4 158.287 268.49 157.827 268.67C157.367 268.83 157.037 269.07 156.837 269.39C156.637 269.71 156.537 270.08 156.537 270.5C156.537 270.92 156.637 271.28 156.837 271.58C157.037 271.88 157.327 272.11 157.707 272.27C158.087 272.43 158.537 272.51 159.057 272.51ZM176.769 275C175.749 275 174.859 274.84 174.099 274.52C173.359 274.2 172.779 273.67 172.359 272.93C171.939 272.19 171.729 271.19 171.729 269.93V262.91H169.149V259.88H171.729L172.149 255.89H175.329V259.88H179.439V262.91H175.329V269.93C175.329 270.69 175.489 271.22 175.809 271.52C176.149 271.8 176.709 271.94 177.489 271.94H179.349V275H176.769ZM196.721 275C195.701 275 194.811 274.84 194.051 274.52C193.311 274.2 192.731 273.67 192.311 272.93C191.891 272.19 191.681 271.19 191.681 269.93V262.91H189.101V259.88H191.681L192.101 255.89H195.281V259.88H199.391V262.91H195.281V269.93C195.281 270.69 195.441 271.22 195.761 271.52C196.101 271.8 196.661 271.94 197.441 271.94H199.301V275H196.721ZM202.778 275V253.4H206.378V262.22C206.878 261.4 207.558 260.75 208.418 260.27C209.278 259.77 210.248 259.52 211.328 259.52C212.568 259.52 213.618 259.78 214.478 260.3C215.338 260.8 215.988 261.55 216.428 262.55C216.888 263.53 217.118 264.76 217.118 266.24V275H213.548V266.57C213.548 265.27 213.268 264.28 212.708 263.6C212.168 262.92 211.338 262.58 210.218 262.58C209.498 262.58 208.848 262.76 208.268 263.12C207.688 263.46 207.228 263.96 206.888 264.62C206.548 265.26 206.378 266.05 206.378 266.99V275H202.778ZM228.022 275.36C226.522 275.36 225.202 275.04 224.062 274.4C222.922 273.74 222.032 272.82 221.392 271.64C220.752 270.46 220.432 269.1 220.432 267.56C220.432 265.96 220.742 264.56 221.362 263.36C222.002 262.16 222.892 261.22 224.032 260.54C225.192 259.86 226.532 259.52 228.052 259.52C229.532 259.52 230.822 259.85 231.922 260.51C233.022 261.17 233.872 262.06 234.472 263.18C235.072 264.28 235.372 265.52 235.372 266.9C235.372 267.1 235.372 267.32 235.372 267.56C235.372 267.8 235.352 268.05 235.312 268.31H223.012V266H231.742C231.702 264.9 231.332 264.04 230.632 263.42C229.932 262.78 229.062 262.46 228.022 262.46C227.282 262.46 226.602 262.63 225.982 262.97C225.362 263.31 224.872 263.82 224.512 264.5C224.152 265.16 223.972 266 223.972 267.02V267.89C223.972 268.83 224.142 269.64 224.482 270.32C224.842 271 225.322 271.52 225.922 271.88C226.542 272.22 227.232 272.39 227.992 272.39C228.832 272.39 229.522 272.21 230.062 271.85C230.622 271.49 231.032 271.01 231.292 270.41H234.952C234.672 271.35 234.212 272.2 233.572 272.96C232.932 273.7 232.142 274.29 231.202 274.73C230.262 275.15 229.202 275.36 228.022 275.36ZM252.05 275.36C250.71 275.36 249.54 275.15 248.54 274.73C247.56 274.29 246.78 273.69 246.2 272.93C245.64 272.15 245.31 271.26 245.21 270.26H248.81C248.91 270.68 249.09 271.07 249.35 271.43C249.61 271.77 249.96 272.04 250.4 272.24C250.86 272.44 251.4 272.54 252.02 272.54C252.62 272.54 253.11 272.46 253.49 272.3C253.87 272.12 254.15 271.89 254.33 271.61C254.51 271.33 254.6 271.03 254.6 270.71C254.6 270.23 254.47 269.86 254.21 269.6C253.95 269.34 253.57 269.14 253.07 269C252.59 268.84 252.01 268.69 251.33 268.55C250.61 268.41 249.91 268.24 249.23 268.04C248.57 267.82 247.97 267.55 247.43 267.23C246.91 266.91 246.49 266.5 246.17 266C245.87 265.5 245.72 264.89 245.72 264.17C245.72 263.29 245.95 262.5 246.41 261.8C246.89 261.1 247.57 260.55 248.45 260.15C249.35 259.73 250.42 259.52 251.66 259.52C253.42 259.52 254.82 259.93 255.86 260.75C256.92 261.55 257.54 262.68 257.72 264.14H254.3C254.2 263.58 253.92 263.15 253.46 262.85C253 262.53 252.39 262.37 251.63 262.37C250.85 262.37 250.25 262.52 249.83 262.82C249.43 263.1 249.23 263.48 249.23 263.96C249.23 264.26 249.35 264.54 249.59 264.8C249.85 265.04 250.22 265.25 250.7 265.43C251.18 265.59 251.77 265.75 252.47 265.91C253.59 266.13 254.58 266.39 255.44 266.69C256.3 266.99 256.98 267.43 257.48 268.01C257.98 268.59 258.23 269.41 258.23 270.47C258.25 271.43 258 272.28 257.48 273.02C256.98 273.76 256.27 274.34 255.35 274.76C254.43 275.16 253.33 275.36 252.05 275.36ZM261.723 281.6V259.88H264.933L265.323 262.07C265.643 261.63 266.023 261.22 266.463 260.84C266.923 260.44 267.473 260.12 268.113 259.88C268.773 259.64 269.523 259.52 270.363 259.52C271.783 259.52 273.033 259.87 274.113 260.57C275.213 261.27 276.073 262.22 276.693 263.42C277.313 264.6 277.623 265.95 277.623 267.47C277.623 268.99 277.303 270.35 276.663 271.55C276.043 272.73 275.183 273.66 274.083 274.34C273.003 275.02 271.763 275.36 270.363 275.36C269.223 275.36 268.223 275.15 267.363 274.73C266.523 274.29 265.843 273.67 265.323 272.87V281.6H261.723ZM269.613 272.24C270.453 272.24 271.203 272.04 271.863 271.64C272.523 271.24 273.033 270.68 273.393 269.96C273.773 269.24 273.963 268.41 273.963 267.47C273.963 266.51 273.773 265.67 273.393 264.95C273.033 264.23 272.523 263.67 271.863 263.27C271.203 262.87 270.453 262.67 269.613 262.67C268.753 262.67 267.993 262.87 267.333 263.27C266.693 263.67 266.183 264.23 265.803 264.95C265.443 265.67 265.263 266.5 265.263 267.44C265.263 268.4 265.443 269.24 265.803 269.96C266.183 270.66 266.693 271.22 267.333 271.64C267.993 272.04 268.753 272.24 269.613 272.24ZM288.197 275.36C286.697 275.36 285.377 275.04 284.237 274.4C283.097 273.74 282.207 272.82 281.567 271.64C280.927 270.46 280.607 269.1 280.607 267.56C280.607 265.96 280.917 264.56 281.537 263.36C282.177 262.16 283.067 261.22 284.207 260.54C285.367 259.86 286.707 259.52 288.227 259.52C289.707 259.52 290.997 259.85 292.097 260.51C293.197 261.17 294.047 262.06 294.647 263.18C295.247 264.28 295.547 265.52 295.547 266.9C295.547 267.1 295.547 267.32 295.547 267.56C295.547 267.8 295.527 268.05 295.487 268.31H283.187V266H291.917C291.877 264.9 291.507 264.04 290.807 263.42C290.107 262.78 289.237 262.46 288.197 262.46C287.457 262.46 286.777 262.63 286.157 262.97C285.537 263.31 285.047 263.82 284.687 264.5C284.327 265.16 284.147 266 284.147 267.02V267.89C284.147 268.83 284.317 269.64 284.657 270.32C285.017 271 285.497 271.52 286.097 271.88C286.717 272.22 287.407 272.39 288.167 272.39C289.007 272.39 289.697 272.21 290.237 271.85C290.797 271.49 291.207 271.01 291.467 270.41H295.127C294.847 271.35 294.387 272.2 293.747 272.96C293.107 273.7 292.317 274.29 291.377 274.73C290.437 275.15 289.377 275.36 288.197 275.36ZM305.951 275.36C304.451 275.36 303.131 275.04 301.991 274.4C300.851 273.74 299.961 272.82 299.321 271.64C298.681 270.46 298.361 269.1 298.361 267.56C298.361 265.96 298.671 264.56 299.291 263.36C299.931 262.16 300.821 261.22 301.961 260.54C303.121 259.86 304.461 259.52 305.981 259.52C307.461 259.52 308.751 259.85 309.851 260.51C310.951 261.17 311.801 262.06 312.401 263.18C313.001 264.28 313.301 265.52 313.301 266.9C313.301 267.1 313.301 267.32 313.301 267.56C313.301 267.8 313.281 268.05 313.241 268.31H300.941V266H309.671C309.631 264.9 309.261 264.04 308.561 263.42C307.861 262.78 306.991 262.46 305.951 262.46C305.211 262.46 304.531 262.63 303.911 262.97C303.291 263.31 302.801 263.82 302.441 264.5C302.081 265.16 301.901 266 301.901 267.02V267.89C301.901 268.83 302.071 269.64 302.411 270.32C302.771 271 303.251 271.52 303.851 271.88C304.471 272.22 305.161 272.39 305.921 272.39C306.761 272.39 307.451 272.21 307.991 271.85C308.551 271.49 308.961 271.01 309.221 270.41H312.881C312.601 271.35 312.141 272.2 311.501 272.96C310.861 273.7 310.071 274.29 309.131 274.73C308.191 275.15 307.131 275.36 305.951 275.36ZM323.345 275.36C321.945 275.36 320.695 275.02 319.595 274.34C318.495 273.66 317.635 272.72 317.015 271.52C316.415 270.32 316.115 268.96 316.115 267.44C316.115 265.92 316.425 264.57 317.045 263.39C317.665 262.19 318.525 261.25 319.625 260.57C320.745 259.87 322.005 259.52 323.405 259.52C324.545 259.52 325.535 259.74 326.375 260.18C327.235 260.6 327.915 261.2 328.415 261.98V253.4H332.015V275H328.775L328.415 272.81C328.095 273.25 327.705 273.67 327.245 274.07C326.785 274.45 326.235 274.76 325.595 275C324.955 275.24 324.205 275.36 323.345 275.36ZM324.095 272.24C324.955 272.24 325.715 272.04 326.375 271.64C327.035 271.22 327.545 270.65 327.905 269.93C328.265 269.21 328.445 268.38 328.445 267.44C328.445 266.5 328.265 265.67 327.905 264.95C327.545 264.23 327.035 263.67 326.375 263.27C325.715 262.87 324.955 262.67 324.095 262.67C323.275 262.67 322.535 262.87 321.875 263.27C321.215 263.67 320.695 264.23 320.315 264.95C319.955 265.67 319.775 266.5 319.775 267.44C319.775 268.38 319.955 269.21 320.315 269.93C320.695 270.65 321.215 271.22 321.875 271.64C322.535 272.04 323.275 272.24 324.095 272.24ZM350.394 275.36C348.954 275.36 347.654 275.03 346.494 274.37C345.354 273.69 344.454 272.76 343.794 271.58C343.154 270.38 342.834 269.01 342.834 267.47C342.834 265.89 343.164 264.51 343.824 263.33C344.484 262.13 345.384 261.2 346.524 260.54C347.684 259.86 348.984 259.52 350.424 259.52C351.864 259.52 353.154 259.86 354.294 260.54C355.454 261.2 356.354 262.12 356.994 263.3C357.654 264.48 357.984 265.86 357.984 267.44C357.984 269.02 357.654 270.4 356.994 271.58C356.334 272.76 355.424 273.69 354.264 274.37C353.124 275.03 351.834 275.36 350.394 275.36ZM350.394 272.27C351.114 272.27 351.764 272.09 352.344 271.73C352.944 271.37 353.424 270.83 353.784 270.11C354.144 269.39 354.324 268.5 354.324 267.44C354.324 266.38 354.144 265.5 353.784 264.8C353.444 264.08 352.974 263.54 352.374 263.18C351.794 262.82 351.144 262.64 350.424 262.64C349.724 262.64 349.074 262.82 348.474 263.18C347.874 263.54 347.394 264.08 347.034 264.8C346.674 265.5 346.494 266.38 346.494 267.44C346.494 268.5 346.674 269.39 347.034 270.11C347.394 270.83 347.864 271.37 348.444 271.73C349.044 272.09 349.694 272.27 350.394 272.27ZM362.258 275V258.23C362.258 257.07 362.448 256.14 362.828 255.44C363.228 254.72 363.798 254.2 364.538 253.88C365.278 253.56 366.158 253.4 367.178 253.4H368.978V256.46H367.718C367.058 256.46 366.578 256.6 366.278 256.88C365.998 257.14 365.858 257.6 365.858 258.26V275H362.258ZM360.098 262.91V259.88H369.278V262.91H360.098ZM379.701 275V253.4H383.301V275H379.701ZM387.469 275V259.88H391.069V275H387.469ZM389.269 257.48C388.609 257.48 388.059 257.28 387.619 256.88C387.199 256.46 386.989 255.95 386.989 255.35C386.989 254.73 387.199 254.23 387.619 253.85C388.059 253.45 388.609 253.25 389.269 253.25C389.929 253.25 390.469 253.45 390.889 253.85C391.329 254.23 391.549 254.73 391.549 255.35C391.549 255.95 391.329 256.46 390.889 256.88C390.469 257.28 389.929 257.48 389.269 257.48ZM401.589 281.96C400.169 281.96 398.919 281.78 397.839 281.42C396.779 281.08 395.949 280.55 395.349 279.83C394.769 279.13 394.479 278.25 394.479 277.19C394.479 276.57 394.629 275.96 394.929 275.36C395.249 274.78 395.719 274.24 396.339 273.74C396.979 273.22 397.789 272.77 398.769 272.39L400.359 274.13C399.399 274.47 398.729 274.88 398.349 275.36C397.969 275.84 397.779 276.33 397.779 276.83C397.779 277.35 397.939 277.78 398.259 278.12C398.599 278.48 399.049 278.75 399.609 278.93C400.189 279.11 400.839 279.2 401.559 279.2C402.259 279.2 402.869 279.1 403.389 278.9C403.909 278.72 404.309 278.46 404.589 278.12C404.889 277.78 405.039 277.37 405.039 276.89C405.039 276.29 404.829 275.8 404.409 275.42C403.989 275.06 403.159 274.84 401.919 274.76C400.859 274.68 399.929 274.57 399.129 274.43C398.329 274.27 397.639 274.09 397.059 273.89C396.499 273.69 396.019 273.47 395.619 273.23C395.219 272.97 394.889 272.71 394.629 272.45V271.76L397.779 268.46L400.449 269.33L396.909 272.78L397.839 271.04C398.039 271.18 398.239 271.31 398.439 271.43C398.659 271.55 398.929 271.66 399.249 271.76C399.589 271.84 400.029 271.92 400.569 272C401.109 272.08 401.809 272.16 402.669 272.24C404.009 272.34 405.099 272.58 405.939 272.96C406.779 273.34 407.399 273.85 407.799 274.49C408.199 275.13 408.399 275.9 408.399 276.8C408.399 277.68 408.149 278.51 407.649 279.29C407.169 280.07 406.429 280.71 405.429 281.21C404.429 281.71 403.149 281.96 401.589 281.96ZM401.589 270.47C400.329 270.47 399.239 270.23 398.319 269.75C397.419 269.25 396.729 268.59 396.249 267.77C395.769 266.93 395.529 266.01 395.529 265.01C395.529 263.99 395.769 263.07 396.249 262.25C396.729 261.43 397.419 260.77 398.319 260.27C399.239 259.77 400.329 259.52 401.589 259.52C402.849 259.52 403.929 259.77 404.829 260.27C405.729 260.77 406.419 261.43 406.899 262.25C407.379 263.07 407.619 263.99 407.619 265.01C407.619 266.01 407.379 266.93 406.899 267.77C406.419 268.59 405.729 269.25 404.829 269.75C403.929 270.23 402.849 270.47 401.589 270.47ZM401.589 267.68C402.449 267.68 403.139 267.45 403.659 266.99C404.179 266.53 404.439 265.87 404.439 265.01C404.439 264.15 404.179 263.5 403.659 263.06C403.139 262.6 402.449 262.37 401.589 262.37C400.729 262.37 400.029 262.6 399.489 263.06C398.949 263.5 398.679 264.15 398.679 265.01C398.679 265.87 398.949 266.53 399.489 266.99C400.029 267.45 400.729 267.68 401.589 267.68ZM404.079 262.52L403.389 259.88H409.599V262.13L404.079 262.52ZM412.778 275V253.4H416.378V262.22C416.878 261.4 417.558 260.75 418.418 260.27C419.278 259.77 420.248 259.52 421.328 259.52C422.568 259.52 423.618 259.78 424.478 260.3C425.338 260.8 425.988 261.55 426.428 262.55C426.888 263.53 427.118 264.76 427.118 266.24V275H423.548V266.57C423.548 265.27 423.268 264.28 422.708 263.6C422.168 262.92 421.338 262.58 420.218 262.58C419.498 262.58 418.848 262.76 418.268 263.12C417.688 263.46 417.228 263.96 416.888 264.62C416.548 265.26 416.378 266.05 416.378 266.99V275H412.778ZM437.512 275C436.492 275 435.602 274.84 434.842 274.52C434.102 274.2 433.522 273.67 433.102 272.93C432.682 272.19 432.472 271.19 432.472 269.93V262.91H429.892V259.88H432.472L432.892 255.89H436.072V259.88H440.182V262.91H436.072V269.93C436.072 270.69 436.232 271.22 436.552 271.52C436.892 271.8 437.452 271.94 438.232 271.94H440.092V275H437.512Z" fill="white"/>
<path d="M225.75 211C212.75 211 201.333 207.333 191.5 200C181.667 192.5 174 182 168.5 168.5C163 155 160.25 139 160.25 120.5C160.25 102.333 163 86.5 168.5 73C174 59.5 181.833 49 192 41.5C202.333 33.8333 214.667 30 229 30C246.333 30 260.25 34.75 270.75 44.25C281.417 53.75 287.917 67.1667 290.25 84.5H261.5C259.833 75.5 256.167 68.3333 250.5 63C245 57.6667 237.833 55 229 55C215.5 55 205.167 60.8333 198 72.5C190.833 84.1667 187.25 100.167 187.25 120.5C187.25 141.667 191 157.917 198.5 169.25C206.167 180.417 216.083 186 228.25 186C236.417 186 243.167 183.583 248.5 178.75C253.833 173.917 257.917 167.75 260.75 160.25C263.583 152.583 265.333 144.5 266 136H229.25V114H292.75V208H268.25L266.5 184.5H265C261.667 192.167 257 198.5 251 203.5C245 208.5 236.583 211 225.75 211ZM320.652 208V33H379.902C393.236 33 404.236 35.3333 412.902 40C421.569 44.5 427.986 50.75 432.152 58.75C436.319 66.75 438.402 75.9167 438.402 86.25C438.402 96.5833 436.319 105.75 432.152 113.75C427.986 121.75 421.569 128.083 412.902 132.75C404.236 137.25 393.236 139.5 379.902 139.5H347.152V208H320.652ZM347.152 115.75H378.652C389.986 115.75 398.236 113.083 403.402 107.75C408.736 102.417 411.402 95.25 411.402 86.25C411.402 77.4167 408.736 70.3333 403.402 65C398.236 59.5 389.986 56.75 378.652 56.75H347.152V115.75Z" fill="white"/>
<path d="M81.5786 196C83.04 214.729 87.5072 225.746 107.419 230.228" stroke="white" stroke-width="5"/>
<mask id="mask0_157_3" style="mask-type:luminance" maskUnits="userSpaceOnUse" x="102" y="222" width="16" height="16">
<path d="M102 222H117.847V237.114H102V222Z" fill="white"/>
</mask>
<g mask="url(#mask0_157_3)">
<mask id="mask1_157_3" style="mask-type:luminance" maskUnits="userSpaceOnUse" x="102" y="222" width="16" height="16">
<path d="M109.923 222C105.548 222 102 225.384 102 229.557C102 233.731 105.548 237.114 109.923 237.114C114.3 237.114 117.847 233.731 117.847 229.557C117.847 225.384 114.3 222 109.923 222Z" fill="white"/>
</mask>
<g mask="url(#mask1_157_3)">
<path d="M102 222H117.847V237.114H102V222Z" fill="white"/>
</g>
</g>
</g>
<defs>
<clipPath id="clip0_157_3">
<rect width="470" height="309" fill="white"/>
</clipPath>
</defs>
</svg>
