<svg width="119" height="34" viewBox="0 0 119 34" fill="none" xmlns="http://www.w3.org/2000/svg">
<path d="M6.14219 16.3863L6.14104 15.0784L6.11522 1.07301H12.2077C16.0105 1.07301 17.2634 3.44968 17.2634 6.69087C17.2634 12.0329 11.8286 13.478 10.6266 16.8032H11.2156C11.9418 13.9442 21.5413 12.6778 21.5413 6.69087C21.5413 2.93111 18.9053 0.381836 14.0226 0.381836H0.929688V0.468143C1.53454 1.24598 1.75065 5.26464 1.75065 9.02401V15.7291L6.14219 16.3863Z" fill="black"/>
<path d="M0.966309 33.5674H7.01599V33.4989C5.93882 32.3966 6.18884 23.2922 6.1873 21.0596L1.78729 24.2391V26.6909C1.78729 29.6805 1.57116 32.8797 0.966309 33.4989V33.5674Z" fill="black"/>
<path d="M29.9376 33.6183C37.3268 33.6183 40.8268 28.1237 40.8268 23.5433C40.8268 12.1785 28.8142 13.5612 28.8142 9.80185C28.8142 6.21546 38.3203 9.75871 38.3203 4.01139C38.3203 2.58554 36.7211 0.381836 31.2771 0.381836H14.8066V0.468143C15.4115 1.24598 18.5371 5.26502 18.5371 9.02401V24.5804C18.5371 28.3394 18.3209 32.7541 17.7161 33.532V33.6183H29.9376ZM22.9086 1.07301H30.1968C32.5303 1.07301 33.9993 1.63509 33.9993 3.5795C33.9993 8.59212 28.3819 5.6969 28.3819 9.80185C28.3819 13.8637 36.4191 14.2096 36.4191 23.5433C36.4191 27.6483 34.3013 32.9703 29.0303 32.9703H22.9517L22.9086 1.07301Z" fill="black"/>
<path fill-rule="evenodd" clip-rule="evenodd" d="M8.87173 17.8015C9.40415 17.6266 10.172 17.1997 10.7915 16.9423C12.2396 16.3406 16.3692 14.8388 16.6816 17.1319C17.0981 20.1909 11.6301 18.6641 9.87954 18.1744C9.63799 18.1066 9.0343 17.971 8.87173 17.8015ZM17.998 33.2223H22.9482V32.7164L22.8688 32.5531C20.1674 27.0543 15.0219 22.2435 11.285 19.0717C13.1862 19.5132 15.935 20.0367 16.9459 18.5689C17.5562 17.6836 17.8085 14.133 12.3159 15.8166C10.2976 16.4353 8.93452 17.3068 8.18713 17.5472C7.61772 17.1773 7.22937 16.8206 6.61104 16.4511C4.95482 15.4602 1.80651 14.7745 0.527458 16.0358C0.121784 16.4361 -0.146737 17.3157 0.0867278 18.0819C0.82796 20.5122 6.30669 18.6533 6.03547 18.8128L1.0098 21.7727L1.81807 22.3888C3.09365 21.4106 6.83025 18.802 8.12857 18.233C12.0751 21.0773 17.998 28.4593 17.998 33.2223ZM7.54837 17.7471C7.48056 17.803 7.5842 17.7452 7.43511 17.8203L7.07489 17.9348C6.92233 17.9764 6.78132 18.0161 6.61604 18.06C5.26418 18.4175 2.60323 19.1506 1.34806 18.6498C0.759008 18.4144 0.373757 17.8789 0.591812 17.0375C1.10767 15.0515 4.94788 15.9272 6.82716 17.2328C7.07141 17.4023 7.30604 17.6173 7.54837 17.7471Z" fill="black"/>
<path d="M50.1417 9.10456V5.79586C50.1417 2.93834 50.1417 2.41196 50.1041 1.81037C50.0665 1.17119 49.9161 0.870401 49.2957 0.738804C49.1453 0.701206 48.8257 0.682407 48.5625 0.682407C48.3558 0.682407 48.243 0.644807 48.243 0.513212C48.243 0.381615 48.3746 0.344017 48.6565 0.344017C49.6529 0.344017 50.8373 0.400414 51.2321 0.400414C51.8713 0.400414 53.3 0.344017 53.8828 0.344017C55.0672 0.344017 56.3267 0.456813 57.3419 1.15239C57.8683 1.50958 58.6203 2.46835 58.6203 3.72792C58.6203 5.11908 58.0375 6.39744 56.1387 7.93899C57.8119 10.0445 59.109 11.7177 60.2182 12.8832C61.271 13.9736 62.0418 14.1052 62.3237 14.1616C62.5305 14.1992 62.6997 14.218 62.8501 14.218C63.0005 14.218 63.0757 14.2744 63.0757 14.3684C63.0757 14.5188 62.9441 14.5564 62.7185 14.5564H60.9326C59.8798 14.5564 59.4098 14.4624 58.921 14.1992C58.1127 13.7668 57.3983 12.8832 56.3455 11.4357C55.5935 10.4017 54.7288 9.12336 54.4844 8.84137C54.3904 8.72857 54.2776 8.70977 54.146 8.70977L52.5104 8.67217C52.4164 8.67217 52.36 8.70977 52.36 8.82257V9.08576C52.36 10.8341 52.36 12.3193 52.454 13.1088C52.5104 13.654 52.6232 14.0676 53.1872 14.1428C53.4692 14.1804 53.8828 14.218 54.1084 14.218C54.2588 14.218 54.334 14.2744 54.334 14.3684C54.334 14.5 54.2024 14.5564 53.958 14.5564C52.8676 14.5564 51.4765 14.5 51.1945 14.5C50.8373 14.5 49.6529 14.5564 48.9009 14.5564C48.6565 14.5564 48.525 14.5 48.525 14.3684C48.525 14.2744 48.6001 14.218 48.8257 14.218C49.1077 14.218 49.3333 14.1804 49.5025 14.1428C49.8785 14.0676 49.9725 13.654 50.0477 13.1088C50.1417 12.3193 50.1417 10.8341 50.1417 9.10456ZM52.36 1.56598V7.28101C52.36 7.48781 52.3976 7.563 52.5292 7.6194C52.924 7.751 53.488 7.8074 53.958 7.8074C54.71 7.8074 54.9544 7.7322 55.2928 7.48781C55.8567 7.07422 56.4019 6.20944 56.4019 4.66789C56.4019 1.99837 54.6348 1.22759 53.5256 1.22759C53.0556 1.22759 52.7172 1.24639 52.5292 1.30279C52.3976 1.34039 52.36 1.41558 52.36 1.56598ZM63.0171 9.91293V7.09302C63.0171 4.66789 63.0171 4.2167 62.9983 3.70912C62.9607 3.16393 62.7915 2.97594 62.4343 2.86314C62.2463 2.80674 62.0395 2.78794 61.8328 2.78794C61.6636 2.78794 61.5696 2.75035 61.5696 2.59995C61.5696 2.50595 61.7012 2.46835 61.9644 2.46835C62.5847 2.46835 63.7127 2.50595 64.1827 2.50595C64.5963 2.50595 65.6678 2.46835 66.307 2.46835C66.5138 2.46835 66.6454 2.50595 66.6454 2.59995C66.6454 2.75035 66.5514 2.78794 66.3822 2.78794C66.213 2.78794 66.0814 2.80674 65.8934 2.84434C65.4422 2.91954 65.3107 3.14513 65.2731 3.70912C65.2355 4.2167 65.2355 4.66789 65.2355 7.09302V9.91293C65.2355 11.4545 65.2355 12.7329 65.3107 13.4096C65.3671 13.842 65.4798 14.0864 65.9686 14.1616C66.1942 14.1992 66.5702 14.218 66.8146 14.218C67.0026 14.218 67.0778 14.312 67.0778 14.3872C67.0778 14.5 66.9462 14.5564 66.7582 14.5564C65.6678 14.5564 64.5399 14.5 64.0887 14.5C63.7127 14.5 62.5847 14.5564 61.9268 14.5564C61.72 14.5564 61.6072 14.5 61.6072 14.3872C61.6072 14.312 61.6636 14.218 61.8704 14.218C62.1147 14.218 62.3027 14.1992 62.4531 14.1616C62.7915 14.0864 62.8855 13.8608 62.9419 13.3908C63.0171 12.7329 63.0171 11.4545 63.0171 9.91293ZM69.7328 9.91293V7.09302C69.7328 4.66789 69.7328 4.2167 69.714 3.70912C69.6764 3.16393 69.526 2.99474 68.9996 2.84434C68.868 2.80674 68.586 2.78794 68.3416 2.78794C68.1724 2.78794 68.0596 2.73155 68.0596 2.61875C68.0596 2.50595 68.1912 2.46835 68.4356 2.46835C69.3004 2.46835 70.3532 2.50595 70.6728 2.50595C71.4999 2.50595 72.5903 2.46835 73.1543 2.46835C76.1434 2.46835 76.6698 4.00991 76.6698 4.85588C76.6698 6.09665 75.7486 7.05542 74.8086 7.657C76.1622 8.08939 77.8541 9.23616 77.8541 11.1161C77.8541 12.8268 76.5006 14.594 73.4551 14.594C73.2671 14.594 72.7031 14.5752 72.1391 14.5376C71.5751 14.5188 70.9923 14.5 70.7292 14.5C70.5412 14.5 70.184 14.5188 69.7892 14.5188C69.3944 14.5376 68.9808 14.5564 68.6424 14.5564C68.4356 14.5564 68.3228 14.5 68.3228 14.3872C68.3228 14.312 68.3792 14.218 68.586 14.218C68.8304 14.218 69.0184 14.1992 69.1688 14.1616C69.5072 14.0864 69.6012 13.7856 69.6576 13.3156C69.7328 12.6389 69.7328 11.3793 69.7328 9.91293ZM71.8759 3.50232V7.35621C71.8759 7.48781 71.9323 7.50661 71.9887 7.52541C72.1391 7.563 72.3835 7.5818 72.7595 7.5818C73.3047 7.5818 73.7747 7.52541 74.0567 7.29981C74.489 6.96142 74.8086 6.37864 74.8086 5.60786C74.8086 4.53629 74.1695 3.20153 72.7407 3.20153C72.5151 3.20153 72.1955 3.20153 72.0263 3.23913C71.9135 3.25793 71.8759 3.33313 71.8759 3.50232ZM71.8759 8.42778V12.0561C71.8759 13.1088 71.9323 13.4284 72.4587 13.6352C72.8911 13.8044 73.2671 13.8232 73.6431 13.8232C74.5266 13.8232 75.6734 13.3344 75.6734 11.5673C75.6734 10.8341 75.3538 9.57454 74.1131 8.72857C73.7747 8.48418 73.3235 8.31498 72.6843 8.31498H71.9699C71.9135 8.31498 71.8759 8.33378 71.8759 8.42778ZM80.0651 9.91293V7.09302C80.0651 4.66789 80.0651 4.2167 80.0463 3.70912C80.0087 3.16393 79.8583 2.99474 79.332 2.84434C79.2004 2.80674 78.9184 2.78794 78.674 2.78794C78.5048 2.78794 78.392 2.73155 78.392 2.61875C78.392 2.50595 78.5236 2.46835 78.768 2.46835C79.6327 2.46835 80.6855 2.50595 81.0051 2.50595C81.8323 2.50595 82.9226 2.46835 83.4866 2.46835C86.4757 2.46835 87.0021 4.00991 87.0021 4.85588C87.0021 6.09665 86.081 7.05542 85.141 7.657C86.4945 8.08939 88.1865 9.23616 88.1865 11.1161C88.1865 12.8268 86.8329 14.594 83.7874 14.594C83.5994 14.594 83.0354 14.5752 82.4715 14.5376C81.9075 14.5188 81.3247 14.5 81.0615 14.5C80.8735 14.5 80.5163 14.5188 80.1215 14.5188C79.7267 14.5376 79.3132 14.5564 78.9748 14.5564C78.768 14.5564 78.6552 14.5 78.6552 14.3872C78.6552 14.312 78.7116 14.218 78.9184 14.218C79.1628 14.218 79.3508 14.1992 79.5012 14.1616C79.8395 14.0864 79.9335 13.7856 79.9899 13.3156C80.0651 12.6389 80.0651 11.3793 80.0651 9.91293ZM82.2083 3.50232V7.35621C82.2083 7.48781 82.2647 7.50661 82.3211 7.52541C82.4715 7.563 82.7159 7.5818 83.0918 7.5818C83.637 7.5818 84.107 7.52541 84.389 7.29981C84.8214 6.96142 85.141 6.37864 85.141 5.60786C85.141 4.53629 84.5018 3.20153 83.073 3.20153C82.8475 3.20153 82.5279 3.20153 82.3587 3.23913C82.2459 3.25793 82.2083 3.33313 82.2083 3.50232ZM82.2083 8.42778V12.0561C82.2083 13.1088 82.2647 13.4284 82.7911 13.6352C83.2234 13.8044 83.5994 13.8232 83.9754 13.8232C84.859 13.8232 86.0058 13.3344 86.0058 11.5673C86.0058 10.8341 85.6862 9.57454 84.4454 8.72857C84.107 8.48418 83.6558 8.31498 83.0166 8.31498H82.3023C82.2459 8.31498 82.2083 8.33378 82.2083 8.42778ZM96.1133 14.7632C91.3006 14.7632 89.3455 11.3417 89.3455 8.50298C89.3455 5.77706 91.263 2.24276 96.2824 2.24276C100.456 2.24276 103.05 4.55509 103.05 8.22098C103.05 11.8869 100.381 14.7632 96.1133 14.7632ZM96.79 13.8984C97.9556 13.8984 100.588 13.3532 100.588 8.80377C100.588 5.26947 98.4632 3.08874 95.7937 3.08874C93.9513 3.08874 91.7894 4.06631 91.7894 8.01419C91.7894 11.3041 93.6693 13.8984 96.79 13.8984ZM106.037 5.85225L106.225 12.3757C106.263 13.6164 106.469 13.9924 106.789 14.1052C107.071 14.1992 107.391 14.218 107.654 14.218C107.842 14.218 107.936 14.2932 107.936 14.3872C107.936 14.5188 107.785 14.5564 107.56 14.5564C106.488 14.5564 105.717 14.5 105.417 14.5C105.266 14.5 104.477 14.5564 103.631 14.5564C103.405 14.5564 103.255 14.5376 103.255 14.3872C103.255 14.2932 103.367 14.218 103.518 14.218C103.743 14.218 104.044 14.1992 104.27 14.1428C104.702 14.03 104.759 13.5976 104.777 12.2065L104.928 2.73155C104.928 2.41196 105.041 2.18636 105.21 2.18636C105.417 2.18636 105.642 2.43076 105.924 2.71275C106.131 2.91954 108.613 5.45747 111.019 7.8074C112.147 8.91656 114.346 11.1725 114.591 11.3981H114.666L114.497 4.2919C114.478 3.31433 114.328 3.03234 113.933 2.88194C113.688 2.78794 113.294 2.78794 113.068 2.78794C112.861 2.78794 112.805 2.71275 112.805 2.61875C112.805 2.48715 112.974 2.46835 113.218 2.46835C114.083 2.46835 114.967 2.50595 115.324 2.50595C115.512 2.50595 116.132 2.46835 116.941 2.46835C117.166 2.46835 117.317 2.48715 117.317 2.61875C117.317 2.71275 117.223 2.78794 117.035 2.78794C116.865 2.78794 116.734 2.78794 116.527 2.84434C116.076 2.97594 115.944 3.25793 115.926 4.1603L115.738 14.2368C115.738 14.594 115.606 14.7444 115.474 14.7444C115.192 14.7444 114.967 14.5752 114.798 14.406C113.764 13.4472 111.696 11.4733 109.966 9.80014C108.161 8.07059 106.413 6.13425 106.093 5.85225H106.037ZM48.1429 29.6861C48.1429 27.4988 50.0686 25.7975 51.1903 25.2553C50.4051 24.2084 50.2555 23.4419 50.2368 22.6006C50.2181 21.1236 51.5268 19.1606 54.7798 19.1606C55.6959 19.1606 56.5372 19.3476 57.042 19.5532C57.3598 19.6654 57.3598 19.8149 57.3598 20.0393C57.3598 20.6562 57.2102 22.1519 57.1541 22.4323C57.1167 22.7127 57.042 22.7501 56.9298 22.7501C56.8176 22.7501 56.7989 22.6753 56.7989 22.3949C56.7989 21.9088 56.668 21.3106 56.2567 20.8245C55.8828 20.3758 55.2285 19.9832 54.1816 19.9832C53.3963 19.9832 52.1811 20.5254 52.1811 22.1145C52.1811 23.8718 53.789 25.3675 55.2846 27.0314C55.9202 27.7605 58.2198 29.8357 58.575 30.1535C58.9489 29.63 59.4724 28.4148 59.4724 27.2744C59.4724 26.994 59.3976 26.6575 59.1172 26.4144C58.8741 26.1901 58.4815 26.134 58.2011 26.134C58.0889 26.134 57.9767 26.0966 57.9767 25.9844C57.9767 25.8349 58.1263 25.7975 58.2759 25.7975C58.7245 25.7975 59.4724 25.8162 60.5193 25.9283C60.8745 25.9657 61.155 26.0779 61.155 26.3023C61.155 27.7418 60.3884 29.4805 59.3228 30.7331C60.5754 31.7613 61.4167 32.2661 61.9215 32.5652C62.5197 32.9204 63.548 33.2196 63.9219 33.2196C64.0901 33.2196 64.1836 33.2383 64.1836 33.3878C64.1836 33.5 64.0341 33.5561 63.6228 33.5561H62.1832C60.0519 33.5561 59.3789 33.3504 57.7711 32.1165C57.1541 32.6774 55.9015 33.8178 53.3403 33.8178C49.3394 33.8178 48.1429 31.3126 48.1429 29.6861ZM53.9759 32.64C55.4155 32.64 56.6494 31.8922 57.042 31.5183C55.9576 30.5835 54.1629 28.8261 53.6768 28.3027C53.1907 27.7792 51.9942 26.4331 51.6764 25.9657C51.0407 26.4331 50.3864 27.3118 50.3864 28.8074C50.3864 31.1444 52.0316 32.64 53.9759 32.64ZM72.37 28.1344V24.844C72.37 22.0023 72.37 21.4788 72.3326 20.8806C72.2952 20.2449 72.1457 19.9458 71.5287 19.8149C71.3792 19.7775 71.0613 19.7589 70.7996 19.7589C70.594 19.7589 70.4818 19.7215 70.4818 19.5906C70.4818 19.4597 70.6127 19.4223 70.8931 19.4223C71.8839 19.4223 73.0618 19.4784 73.4357 19.4784C74.3517 19.4784 75.0809 19.4223 75.7165 19.4223C79.1004 19.4223 79.6986 21.2358 79.6986 22.2266C79.6986 23.7597 78.82 24.6758 77.7917 25.4984C79.3247 26.0218 81.1943 27.3492 81.1943 29.5366C81.1943 31.537 79.6426 33.6122 76.2026 33.6122C75.9782 33.6122 75.4361 33.5748 74.8939 33.5561C74.333 33.5187 73.7722 33.5 73.4918 33.5C73.2861 33.5 72.8748 33.5 72.4261 33.5187C71.9961 33.5187 71.51 33.5561 71.1361 33.5561C70.8931 33.5561 70.7622 33.5 70.7622 33.3691C70.7622 33.2757 70.837 33.2196 71.0613 33.2196C71.3418 33.2196 71.5661 33.1822 71.7344 33.1448C72.1083 33.07 72.2018 32.6587 72.2765 32.1165C72.37 31.3313 72.37 29.8544 72.37 28.1344ZM74.6135 20.5441V25.1618C74.6135 25.3114 74.6696 25.3488 74.7443 25.3675C74.9126 25.4049 75.193 25.4236 75.623 25.4236C76.24 25.4236 76.6513 25.3488 76.9691 25.0684C77.4552 24.6758 77.7356 24.0027 77.7356 23.0866C77.7356 21.834 77.0065 20.1888 75.3987 20.1888C75.137 20.1888 74.9687 20.1888 74.7817 20.2262C74.6509 20.2636 74.6135 20.3384 74.6135 20.5441ZM78.8947 30.3779C78.8947 29.2187 78.5021 27.6483 77.0813 26.6575C76.6887 26.377 76.2587 26.2462 75.5296 26.2088C75.193 26.1901 75.0061 26.1901 74.7257 26.1901C74.6509 26.1901 74.6135 26.2275 74.6135 26.321V30.7518C74.6135 31.9857 74.6696 32.3035 75.2678 32.5465C75.7726 32.7522 76.2026 32.7709 76.6326 32.7709C77.4739 32.7709 78.8947 32.3222 78.8947 30.3779ZM90.3457 33.7617C85.5597 33.7617 83.6153 30.3592 83.6153 27.5362C83.6153 24.8253 85.5223 21.3106 90.514 21.3106C94.6643 21.3106 97.2443 23.6101 97.2443 27.2557C97.2443 30.9013 94.5896 33.7617 90.3457 33.7617ZM91.0187 32.9017C92.1778 32.9017 94.7952 32.3596 94.7952 27.8353C94.7952 24.3205 92.6826 22.1519 90.0279 22.1519C88.1957 22.1519 86.0457 23.124 86.0457 27.0501C86.0457 30.3218 87.9153 32.9017 91.0187 32.9017ZM103.398 33.1822L99.9205 23.0866C99.7149 22.5071 99.584 22.1332 99.341 21.9836C99.1727 21.8714 98.8549 21.8527 98.7053 21.8527C98.5371 21.8527 98.4436 21.7967 98.4436 21.6845C98.4436 21.5723 98.5745 21.5349 98.8175 21.5349C99.6588 21.5349 100.575 21.5723 100.724 21.5723C100.874 21.5723 101.678 21.5349 102.631 21.5349C102.874 21.5349 102.987 21.5723 102.987 21.6845C102.987 21.7967 102.856 21.8527 102.687 21.8527C102.557 21.8527 102.407 21.8714 102.276 21.9275C102.127 21.9836 102.108 22.0771 102.108 22.2453C102.108 22.451 102.257 22.9745 102.463 23.7036C102.744 24.7505 104.239 29.5553 104.482 30.2844H104.538L107.679 22.1706C107.847 21.7219 108.016 21.591 108.165 21.591C108.352 21.591 108.502 21.834 108.707 22.3388L111.998 30.1722H112.054C112.372 29.2561 113.624 25.0684 114.204 23.2175C114.316 22.8436 114.372 22.5258 114.372 22.3014C114.372 22.0397 114.223 21.8527 113.568 21.8527C113.419 21.8527 113.288 21.778 113.288 21.6845C113.288 21.5723 113.419 21.5349 113.68 21.5349C114.54 21.5349 115.288 21.5723 115.438 21.5723C115.55 21.5723 116.26 21.5349 116.803 21.5349C116.989 21.5349 117.102 21.5723 117.102 21.6658C117.102 21.778 117.027 21.8527 116.877 21.8527C116.709 21.8527 116.485 21.8714 116.298 21.9275C115.905 22.0771 115.718 22.6753 115.382 23.5914C114.615 25.5918 112.933 30.6396 112.129 33.0139C111.942 33.5748 111.848 33.7617 111.605 33.7617C111.381 33.7617 111.269 33.5748 111.026 32.9952L107.679 25.1618H107.642C107.361 25.8349 105.155 31.4622 104.482 32.9204C104.183 33.5748 104.09 33.7617 103.847 33.7617C103.641 33.7617 103.547 33.5935 103.398 33.1822Z" fill="black"/>
</svg>
